Patient4_TMGait_0pt3_03_left_26_GRF.mot
version=1
nRows=45
nColumns=19
inDegrees=no
endheader
time	F1x	F1y	F1z	M1x	M1y	M1z	F2x	F2y	F2z	M2x	M2y	M2z	EC1x	EC1y	EC1z	EC2x	EC2y	EC2z
45.71	3.2979	3.8142	-0.14114	-1.0352	-2.0119	3.4114	-4.8256	775.5513	-41.5064	265.703	40.5762	678.5592	-0.0592	0.0182	-0.0073	-0.0462	0.0165	0.9585
45.7284	2.0549	3.041	-0.09249	-0.85651	-1.4674	2.7639	-4.8892	789.7152	-41.3797	270.0453	40.6658	689.8517	-0.0592	0.0182	-0.0073	-0.0462	0.0165	0.9585
45.7467	1.0094	2.3906	-0.043497	-0.7082	-0.99694	2.2147	-4.6695	805.7486	-41.2496	275.0436	40.4899	702.0561	-0.0592	0.0182	-0.0073	-0.0462	0.0165	0.9585
45.7651	0.21841	1.9056	0.0049046	-0.60252	-0.63842	1.8074	-4.0311	822.3708	-41.0939	280.2841	39.9526	714.0131	-0.0592	0.0182	-0.0073	-0.0462	0.0165	0.9585
45.7834	-0.32767	1.5858	0.054442	-0.54112	-0.40045	1.5461	-2.8729	838.0682	-40.8859	285.2476	38.9958	724.4574	-0.0592	0.0182	-0.0073	-0.0462	0.0165	0.9585
45.8018	-0.67404	1.4031	0.10429	-0.51685	-0.27127	1.4047	-1.1661	851.2424	-40.6045	289.3684	37.6113	732.1369	-0.0592	0.0182	-0.0073	-0.0462	0.0165	0.9585
45.8201	-0.87799	1.3129	0.15187	-0.51657	-0.22701	1.3412	1.0314	860.4179	-40.2461	292.1126	35.8529	735.9761	-0.0592	0.0182	-0.0073	-0.0462	0.0165	0.9585
45.8385	-0.99401	1.2635	0.1964	-0.52423	-0.24301	1.3088	3.5885	864.4868	-39.8281	293.0732	33.8228	735.2522	-0.0592	0.0182	-0.0073	-0.0462	0.0165	0.9585
45.8569	-1.0653	1.2027	0.2363	-0.52243	-0.29767	1.2601	6.3352	862.9104	-39.364	292.0469	31.6334	729.7373	-0.0592	0.0182	-0.0073	-0.0462	0.0165	0.9585
45.8752	-1.1242	1.0806	0.27016	-0.4919	-0.37735	1.1532	9.0882	855.7767	-38.8634	289.0578	29.3931	719.7184	-0.0592	0.0182	-0.0073	-0.0462	0.0165	0.9585
45.8936	-1.1902	0.84753	0.299	-0.41227	-0.47171	0.94748	11.6745	843.7542	-38.3474	284.34	27.2107	705.9221	-0.0592	0.0182	-0.0073	-0.0462	0.0165	0.9585
45.9119	-1.2672	0.4569	0.32513	-0.26424	-0.56995	0.59421	13.9657	827.9563	-37.859	278.291	25.1928	689.3704	-0.0592	0.0182	-0.0073	-0.0462	0.0165	0.9585
45.9303	-1.34	-0.12833	0.34652	-0.032682	-0.65573	0.047082	15.9119	809.7537	-37.4537	271.4038	23.424	671.2135	-0.0592	0.0182	-0.0073	-0.0462	0.0165	0.9585
45.9486	-1.3729	-0.92008	0.35758	0.28761	-0.70683	-0.71939	17.538	790.5666	-37.1925	264.1922	21.9648	652.563	-0.0592	0.0182	-0.0073	-0.0462	0.0165	0.9585
45.967	-1.3082	-1.8888	0.34799	0.68194	-0.69127	-1.6824	18.9356	771.7438	-37.1242	257.1473	20.8365	634.4144	-0.0592	0.0182	-0.0073	-0.0462	0.0165	0.9585
45.9854	-1.0718	-2.935	0.29832	1.1067	-0.55973	-2.7424	20.2389	754.4956	-37.2651	250.7096	20.0124	617.6278	-0.0592	0.0182	-0.0073	-0.0462	0.0165	0.9585
46.0037	-0.57313	-3.8505	0.1797	1.477	-0.2453	-3.6978	21.6043	739.8298	-37.5987	245.2421	19.4247	602.9021	-0.0592	0.0182	-0.0073	-0.0462	0.0165	0.9585
46.0221	0.28386	-4.2814	-0.038776	1.6509	0.32561	-4.2096	23.1758	728.4883	-38.0997	241.0026	18.9944	590.7519	-0.0592	0.0182	-0.0073	-0.0462	0.0165	0.9585
46.0404	1.5848	-3.6966	-0.38528	1.4131	1.214	-3.7515	25.0455	720.8421	-38.7528	238.1065	18.6612	581.4448	-0.0592	0.0182	-0.0073	-0.0462	0.0165	0.9585
46.0588	3.3732	-1.374	-0.88037	0.46838	2.4528	-1.6003	27.2245	716.8048	-39.5469	236.4997	18.3946	574.938	-0.0592	0.0182	-0.0073	-0.0462	0.0165	0.9585
46.0771	5.6093	3.5712	-1.5239	-1.5434	4.0199	3.1321	29.638	715.7944	-40.4707	235.9509	18.1948	570.8414	-0.0592	0.0182	-0.0073	-0.0462	0.0165	0.9585
46.0955	8.0983	12.0985	-2.2768	-5.0102	5.7925	11.4171	32.1131	716.7395	-41.5011	236.0617	18.0821	568.4121	-0.0592	0.0182	-0.0073	-0.0462	0.0165	0.9585
46.1139	10.4051	25.0533	-3.0434	-10.2693	7.4962	24.1282	34.3926	718.1326	-42.5865	236.2941	18.0894	566.5828	-0.0592	0.0182	-0.0073	-0.0462	0.0165	0.9585
46.1322	11.7958	42.8786	-3.6442	-17.4925	8.6512	41.7561	36.202	718.1773	-43.6343	236.029	18.2323	564.0458	-0.0592	0.0182	-0.0073	-0.0462	0.0165	0.9585
46.1506	11.4184	65.4273	-3.8153	-26.6098	8.6454	64.2253	37.3295	715.043	-44.5194	234.6571	18.4861	559.4284	-0.0592	0.0182	-0.0073	-0.0462	0.0165	0.9585
46.1689	9.0568	92.2901	-3.2402	-37.4374	7.0638	91.1993	37.6654	707.1437	-45.1015	231.6735	18.7873	551.4993	-0.0592	0.0182	-0.0073	-0.0462	0.0165	0.9585
46.1873	5.1967	122.7788	-1.5938	-49.6731	3.7566	122.0042	37.1953	693.3008	-45.2423	226.7275	19.047	539.3049	-0.0592	0.0182	-0.0073	-0.0462	0.0165	0.9585
46.2056	0.42593	155.3878	1.3453	-62.6983	-1.2683	155.0905	35.9751	672.8326	-44.8094	219.6439	19.1575	522.258	-0.0592	0.0182	-0.0073	-0.0462	0.0165	0.9585
46.224	-4.555	188.0571	5.2945	-75.7048	-7.4209	188.312	34.1187	645.7081	-43.713	210.459	19.0238	500.2713	-0.0592	0.0182	-0.0073	-0.0462	0.0165	0.9585
46.2424	-9.0549	219.0378	9.5799	-88.0339	-13.7073	219.7854	31.8015	612.6582	-41.9433	199.4433	18.5851	473.8504	-0.0592	0.0182	-0.0073	-0.0462	0.0165	0.9585
46.2607	-12.724	247.8713	13.6452	-99.5313	-19.4028	248.9462	29.2516	575.1622	-39.5936	187.0893	17.8343	444.0863	-0.0592	0.0182	-0.0073	-0.0462	0.0165	0.9585
46.2791	-15.5705	275.3513	17.1528	-110.5232	-24.1595	276.5502	26.7238	535.1863	-36.8343	174.0282	16.8098	412.4581	-0.0592	0.0182	-0.0073	-0.0462	0.0165	0.9585
46.2974	-17.7322	302.6434	20.002	-121.4657	-27.9294	303.7459	24.4564	494.7437	-33.8495	160.898	15.5611	380.4943	-0.0592	0.0182	-0.0073	-0.0462	0.0165	0.9585
46.3158	-19.3201	330.454	22.3165	-132.6171	-30.8797	331.2158	22.6302	455.504	-30.8064	148.2212	14.1408	349.4744	-0.0592	0.0182	-0.0073	-0.0462	0.0165	0.9585
46.3341	-20.4232	358.8885	24.3402	-143.989	-33.2844	359.0402	21.3349	418.5538	-27.8546	136.3272	12.6174	320.2479	-0.0592	0.0182	-0.0073	-0.0462	0.0165	0.9585
46.3525	-21.1417	387.7294	26.2989	-155.4677	-35.405	386.969	20.5709	384.3186	-25.1124	125.3307	11.0667	293.1657	-0.0592	0.0182	-0.0073	-0.0462	0.0165	0.9585
46.3709	-21.5695	416.7209	28.3179	-166.9397	-37.408	414.6998	20.2655	352.6384	-22.635	115.1603	9.5467	268.1335	-0.0592	0.0182	-0.0073	-0.0462	0.0165	0.9585
46.3892	-21.7539	445.7649	30.4025	-178.3738	-39.3268	442.0834	20.2778	322.9696	-20.3954	105.6244	8.0835	244.7676	-0.0592	0.0182	-0.0073	-0.0462	0.0165	0.9585
46.4076	-21.6965	474.8976	32.5015	-189.8063	-41.1182	469.1218	20.415	294.6028	-18.3135	96.4831	6.6842	222.5616	-0.0592	0.0182	-0.0073	-0.0462	0.0165	0.9585
46.4259	-21.3721	504.1066	34.5541	-201.2545	-42.7161	495.8014	20.452	266.8597	-16.3106	87.5099	5.3663	201.025	-0.0592	0.0182	-0.0073	-0.0462	0.0165	0.9585
46.4443	-20.7431	533.2292	36.4875	-212.6716	-44.0397	522.0004	20.1629	239.2648	-14.3582	78.5468	4.177	179.8138	-0.0592	0.0182	-0.0073	-0.0462	0.0165	0.9585
46.4626	-19.8011	561.9729	38.2483	-223.9514	-45.0361	547.5085	19.3721	211.6473	-12.4966	69.5361	3.1899	158.7935	-0.0592	0.0182	-0.0073	-0.0462	0.0165	0.9585
46.481	-18.5894	590.0038	39.839	-234.9571	-45.7253	572.0978	17.9957	184.1495	-10.8158	60.5244	2.4885	138.0383	-0.0592	0.0182	-0.0073	-0.0462	0.0165	0.9585
46.4994	-17.2018	616.9942	41.3335	-245.5393	-46.2179	595.559	16.0453	157.1376	-9.4007	51.6358	2.1265	117.7748	-0.0592	0.0182	-0.0073	-0.0462	0.0165	0.9585
46.5177	-15.7771	642.616	42.8407	-255.5393	-46.6791	617.6921	13.6236	131.0793	-8.2714	43.0329	2.0867	98.2993	-0.0592	0.0182	-0.0073	-0.0462	0.0165	0.9585
